<svg width="32" height="32" viewBox="0 0 32 32" fill="none" xmlns="http://www.w3.org/2000/svg">
<mask id="mask0_40_64" style="mask-type:alpha" maskUnits="userSpaceOnUse" x="0" y="0" width="32" height="32">
<rect width="32" height="32" fill="#D9D9D9"/>
</mask>
<g mask="url(#mask0_40_64)">
<path d="M9.33362 18.6667C8.60029 18.6667 7.97251 18.4056 7.45029 17.8833C6.92806 17.3611 6.66695 16.7333 6.66695 16C6.66695 15.2667 6.92806 14.6389 7.45029 14.1167C7.97251 13.5944 8.60029 13.3333 9.33362 13.3333C10.067 13.3333 10.6947 13.5944 11.217 14.1167C11.7392 14.6389 12.0003 15.2667 12.0003 16C12.0003 16.7333 11.7392 17.3611 11.217 17.8833C10.6947 18.4056 10.067 18.6667 9.33362 18.6667ZM9.33362 24C7.1114 24 5.22251 23.2222 3.66695 21.6667C2.1114 20.1111 1.33362 18.2222 1.33362 16C1.33362 13.7778 2.1114 11.8889 3.66695 10.3333C5.22251 8.77778 7.1114 8 9.33362 8C10.8225 8 12.1725 8.36667 13.3836 9.1C14.5947 9.83333 15.5558 10.8 16.267 12H28.0003L32.0003 16L26.0003 22L23.3336 20L20.667 22L17.8336 20H16.267C15.5558 21.2 14.5947 22.1667 13.3836 22.9C12.1725 23.6333 10.8225 24 9.33362 24ZM9.33362 21.3333C10.5781 21.3333 11.6725 20.9556 12.617 20.2C13.5614 19.4444 14.1892 18.4889 14.5003 17.3333H18.667L20.6003 18.7L23.3336 16.6667L25.7003 18.5L28.2003 16L26.867 14.6667H14.5003C14.1892 13.5111 13.5614 12.5556 12.617 11.8C11.6725 11.0444 10.5781 10.6667 9.33362 10.6667C7.86695 10.6667 6.6114 11.1889 5.56695 12.2333C4.52251 13.2778 4.00029 14.5333 4.00029 16C4.00029 17.4667 4.52251 18.7222 5.56695 19.7667C6.6114 20.8111 7.86695 21.3333 9.33362 21.3333Z" fill="#38A3A5"/>
</g>
</svg>
